<svg xmlns="http://www.w3.org/2000/svg" width="200" height="200"><defs><linearGradient id="a" x1="0%" x2="100%" y1="0%" y2="0%"><stop offset="0%" style="stop-color:#d71313;stop-opacity:1"/><stop offset="100%" style="stop-color:red;stop-opacity:1"/></linearGradient></defs><path fill="none" stroke="url(#a)" stroke-width="4" d="M50 15h40l20 35-20 35H50L30 50z"/><path fill="none" stroke="transparent" stroke-width="2" d="M50 15h40l20 35-20 35H50L30 50z"/><path fill="none" stroke="url(#a)" stroke-width="4" d="M110 15h40l20 35-20 35h-40L90 50z"/><path fill="none" stroke="transparent" stroke-width="2" d="M110 15h40l20 35-20 35h-40L90 50z"/><path fill="none" stroke="url(#a)" stroke-width="4" d="M30 50h40l20 35-20 35H30L10 85z"/><path fill="none" stroke="transparent" stroke-width="2" d="M30 50h40l20 35-20 35H30L10 85z"/><path fill="none" stroke="url(#a)" stroke-width="4" d="M90 50h40l20 35-20 35H90L70 85z"/><path fill="none" stroke="transparent" stroke-width="2" d="M90 50h40l20 35-20 35H90L70 85z"/><path fill="none" stroke="url(#a)" stroke-width="4" d="M50 85h40l20 35-20 35H50l-20-35z"/><path fill="none" stroke="transparent" stroke-width="2" d="M50 85h40l20 35-20 35H50l-20-35z"/><path fill="none" stroke="url(#a)" stroke-width="4" d="M110 85h40l20 35-20 35h-40l-20-35z"/><path fill="none" stroke="transparent" stroke-width="2" d="M110 85h40l20 35-20 35h-40l-20-35z"/></svg>