<svg xmlns="http://www.w3.org/2000/svg" viewBox="0 0 200 200" width="200" height="200">
  
 <defs>
    <linearGradient id="grad1" x1="0%" y1="0%" x2="100%" y2="0%">
      <stop offset="0%" style="stop-color:#D71313;stop-opacity:1" />
      <stop offset="100%" style="stop-color:#FF0000;stop-opacity:1" />
    </linearGradient>
  </defs>
 
  <polygon points="50,15 90,15 110,50 90,85 50,85 30,50" stroke="url(#grad1)" fill="none" stroke-width="4" />
  <polygon points="50,15 90,15 110,50 90,85 50,85 30,50" stroke="transparent" fill="none" stroke-width="2" />
  
  <polygon points="110,15 150,15 170,50 150,85 110,85 90,50" stroke="url(#grad1)" fill="none" stroke-width="4" />
  <polygon points="110,15 150,15 170,50 150,85 110,85 90,50" stroke="transparent" fill="none" stroke-width="2" />
  
  <polygon points="30,50 70,50 90,85 70,120 30,120 10,85" stroke="url(#grad1)" fill="none" stroke-width="4" />
  <polygon points="30,50 70,50 90,85 70,120 30,120 10,85" stroke="transparent" fill="none" stroke-width="2" />
  
  <polygon points="90,50 130,50 150,85 130,120 90,120 70,85" stroke="url(#grad1)" fill="none" stroke-width="4" />
  <polygon points="90,50 130,50 150,85 130,120 90,120 70,85" stroke="transparent" fill="none" stroke-width="2" />
  
  <polygon points="50,85 90,85 110,120 90,155 50,155 30,120" stroke="url(#grad1)" fill="none" stroke-width="4" />
  <polygon points="50,85 90,85 110,120 90,155 50,155 30,120" stroke="transparent" fill="none" stroke-width="2" />
  
  <polygon points="110,85 150,85 170,120 150,155 110,155 90,120" stroke="url(#grad1)" fill="none" stroke-width="4" />
  <polygon points="110,85 150,85 170,120 150,155 110,155 90,120" stroke="transparent" fill="none" stroke-width="2" />
</svg>
